Twenty Five is a video album by British singer George Michael, released in November 2006. It contains forty videos , including seven with Wham!.



Tracklist: 


1."Club Tropicana"

2."Wake Me Up Before You Go-Go"

3."Freedom"

4."Last Christmas"

5."Everything She Wants"

6."I'm Your Man"

7."The Edge of Heaven"

8."Careless Whisper"

9."A Different Corner"

10."I Knew You Were Waiting (For Me)" (with Aretha Franklin)

11."I Want Your Sex"

12."Faith"

13."Father Figure"

14."One More Try"

15."Monkey"

16."Kissing a Fool"

17."Freedom! '90"

18."Don't Let the Sun Go Down on Me" (with Elton John)

19."Too Funky"

20."Fastlove"

21."Jesus to a Child"

22."Spinning the Wheel"

23."Older"

24."Outside"

25."As" (with Mary J. Blige)

26."Freeek!"

27."Amazing"

28."John and Elvis Are Dead"

29."Flawless (Go to the City)"

30."Shoot the Dog"

31."Roxanne"

32."An Easier Affair"

33."If I Told You That" (with Whitney Houston)

34."Waltz Away Dreaming"

35."Somebody to Love" (with Queen)

36."I Can't Make You Love Me"

37."Star People" '97

38."You Have Been Loved"

39."Killer/Papa Was a Rollin' Stone"

40."Round Here"



Format                                   : MPEG-4
Format profile                           : Base Media / Version 2
Codec ID                                 : mp42
File size                                : 4.78 GiB
Duration                                 : 3h 19mn
Overall bit rate mode                    : Variable
Overall bit rate                         : 3 437 Kbps

Video
ID                                       : 2
Format                                   : AVC
Format/Info                              : Advanced Video Codec
Format profile                           : High@L4.0
Format settings, CABAC                   : Yes
Format settings, ReFrames                : 4 frames
Codec ID                                 : avc1
Codec ID/Info                            : Advanced Video Coding
Duration                                 : 3h 19mn
Source duration                          : 3h 19mn
Bit rate mode                            : Variable
Bit rate                                 : 2 797 Kbps
Width                                    : 720 pixels
Height                                   : 544 pixels
Display aspect ratio                     : 4:3
Frame rate mode                          : Variable
Frame rate                               : 25.000 fps
Minimum frame rate                       : 24.975 fps
Maximum frame rate                       : 25.536 fps
Standard                                 : NTSC
Color space                              : YUV
Chroma subsampling                       : 4:2:0
Bit depth                                : 8 bits
Scan type                                : Progressive
Bits/(Pixel*Frame)                       : 0.286
Stream size                              : 3.89 GiB (81%)
Source stream size                       : 3.89 GiB (81%)
Language                                 : English
mdhd_Duration                            : 11949119
Color primaries                          : BT.601 NTSC
Transfer characteristics                 : BT.601
Matrix coefficients                      : BT.601

Audio
ID                                       : 1
Format                                   : AAC
Format/Info                              : Advanced Audio Codec
Format profile                           : LC
Codec ID                                 : 40
Duration                                 : 3h 19mn
Source duration                          : 3h 19mn
Bit rate mode                            : Variable
Bit rate                                 : 635 Kbps
Maximum bit rate                         : 962 Kbps
Channel(s)                               : 6 channels
Channel positions                        : Front: L C R, Side: L R, LFE
Sampling rate                            : 48.0 KHz
Compression mode                         : Lossy
Stream size                              : 904 MiB (18%)
Source stream size                       : 905 MiB (18%)
Language                                 : English
mdhd_Duration                            : 11949386
